<svg xmlns="http://www.w3.org/2000/svg" xmlns:xlink="http://www.w3.org/1999/xlink" contentStyleType="text/css" data-diagram-type="DESCRIPTION" height="366px" preserveAspectRatio="none" style="width:1687px;height:366px;background:#FFFFFF;" version="1.1" viewBox="0 0 1687 366" width="1687px" zoomAndPan="magnify"><title>SkillHub - Use Case Diagram</title><defs/><g><g class="title" data-source-line="1"><text fill="#000000" font-family="sans-serif" font-size="14" font-weight="bold" lengthAdjust="spacing" textLength="224.376" x="724.347" y="22.9951">SkillHub - Use Case Diagram</text></g><!--cluster SkillHub System--><g class="cluster" data-entity="SkillHub System" data-source-line="5" data-uid="ent0003" id="cluster_SkillHub System"><rect fill="none" height="195" rx="2.5" ry="2.5" style="stroke:#181818;stroke-width:1;" width="1618" x="7" y="165.7969"/><text fill="#000000" font-family="sans-serif" font-size="14" font-weight="bold" lengthAdjust="spacing" textLength="128.6865" x="751.6567" y="180.792">SkillHub System</text></g><!--entity UC1--><g class="entity" data-entity="UC1" data-source-line="6" data-uid="ent0004" id="entity_UC1"><ellipse cx="67.2028" cy="219.8205" fill="#F1F1F1" rx="44.2028" ry="14.5236" style="stroke:#181818;stroke-width:0.5;"/><text fill="#000000" font-family="sans-serif" font-size="14" lengthAdjust="spacing" textLength="58.2695" x="38.068" y="224.4689">Register</text></g><!--entity UC2--><g class="entity" data-entity="UC2" data-source-line="7" data-uid="ent0005" id="entity_UC2"><ellipse cx="1442.8804" cy="330.3205" fill="#F1F1F1" rx="29.8804" ry="14.5236" style="stroke:#181818;stroke-width:0.5;"/><text fill="#000000" font-family="sans-serif" font-size="14" lengthAdjust="spacing" textLength="38.0146" x="1423.8731" y="334.9689">Login</text></g><!--entity UC3--><g class="entity" data-entity="UC3" data-source-line="8" data-uid="ent0006" id="entity_UC3"><ellipse cx="660.824" cy="330.3617" fill="#F1F1F1" rx="60.824" ry="14.5648" style="stroke:#181818;stroke-width:0.5;"/><text fill="#000000" font-family="sans-serif" font-size="14" lengthAdjust="spacing" textLength="82.0654" x="619.7912" y="335.0101">View Profile</text></g><!--entity UC4--><g class="entity" data-entity="UC4" data-source-line="9" data-uid="ent0007" id="entity_UC4"><ellipse cx="202.9901" cy="219.8205" fill="#F1F1F1" rx="56.4901" ry="14.5236" style="stroke:#181818;stroke-width:0.5;"/><text fill="#000000" font-family="sans-serif" font-size="14" lengthAdjust="spacing" textLength="75.6465" x="165.1669" y="224.4689">Edit Profile</text></g><!--entity UC5--><g class="entity" data-entity="UC5" data-source-line="10" data-uid="ent0008" id="entity_UC5"><ellipse cx="340.7544" cy="219.8205" fill="#F1F1F1" rx="45.7544" ry="14.5236" style="stroke:#181818;stroke-width:0.5;"/><text fill="#000000" font-family="sans-serif" font-size="14" lengthAdjust="spacing" textLength="60.4639" x="310.5225" y="224.4689">Add Skill</text></g><!--entity UC6--><g class="entity" data-entity="UC6" data-source-line="11" data-uid="ent0009" id="entity_UC6"><ellipse cx="486.184" cy="219.9337" fill="#F1F1F1" rx="63.684" ry="15.1368" style="stroke:#181818;stroke-width:0.5;"/><text fill="#000000" font-family="sans-serif" font-size="14" lengthAdjust="spacing" textLength="89.9473" x="441.2104" y="224.5821">Endorse Skill</text></g><!--entity UC7--><g class="entity" data-entity="UC7" data-source-line="12" data-uid="ent0010" id="entity_UC7"><ellipse cx="660.8841" cy="219.8737" fill="#F1F1F1" rx="75.8841" ry="17.5768" style="stroke:#181818;stroke-width:0.5;"/><text fill="#000000" font-family="sans-serif" font-size="14" lengthAdjust="spacing" textLength="120.8662" x="600.451" y="224.5221">Follow Developer</text></g><!--entity UC8--><g class="entity" data-entity="UC8" data-source-line="13" data-uid="ent0011" id="entity_UC8"><ellipse cx="855.1414" cy="219.7251" fill="#F1F1F1" rx="82.6414" ry="18.9283" style="stroke:#181818;stroke-width:0.5;"/><text fill="#000000" font-family="sans-serif" font-size="14" lengthAdjust="spacing" textLength="136.8623" x="786.7102" y="224.3736">Unfollow Developer</text></g><!--entity UC9--><g class="entity" data-entity="UC9" data-source-line="14" data-uid="ent0012" id="entity_UC9"><ellipse cx="1035.083" cy="219.7135" fill="#F1F1F1" rx="62.583" ry="14.9166" style="stroke:#181818;stroke-width:0.5;"/><text fill="#000000" font-family="sans-serif" font-size="14" lengthAdjust="spacing" textLength="86.9531" x="991.6065" y="224.3619">Write Article</text></g><!--entity UC10--><g class="entity" data-entity="UC10" data-source-line="15" data-uid="ent0013" id="entity_UC10"><ellipse cx="1196.7728" cy="219.9514" fill="#F1F1F1" rx="63.7728" ry="15.1546" style="stroke:#181818;stroke-width:0.5;"/><text fill="#000000" font-family="sans-serif" font-size="14" lengthAdjust="spacing" textLength="90.1865" x="1151.6795" y="224.5999">View Articles</text></g><!--entity UC11--><g class="entity" data-entity="UC11" data-source-line="16" data-uid="ent0014" id="entity_UC11"><ellipse cx="1353.9934" cy="219.8205" fill="#F1F1F1" rx="57.9934" ry="14.5236" style="stroke:#181818;stroke-width:0.5;"/><text fill="#000000" font-family="sans-serif" font-size="14" lengthAdjust="spacing" textLength="77.7725" x="1315.1072" y="224.4689">Like Article</text></g><!--entity UC12--><g class="entity" data-entity="UC12" data-source-line="17" data-uid="ent0015" id="entity_UC12"><ellipse cx="1528.1272" cy="219.8223" fill="#F1F1F1" rx="80.6272" ry="18.5254" style="stroke:#181818;stroke-width:0.5;"/><text fill="#000000" font-family="sans-serif" font-size="14" lengthAdjust="spacing" textLength="132.1523" x="1462.0511" y="224.4708">Search Developers</text></g><!--entity Developer--><g class="entity" data-entity="Developer" data-source-line="3" data-uid="ent0002" id="entity_Developer"><ellipse cx="967.0015" cy="51.2969" fill="#F1F1F1" rx="8" ry="8" style="stroke:#181818;stroke-width:0.5;"/><path d="M967.0015,59.2969 L967.0015,86.2969 M954.0015,67.2969 L980.0015,67.2969 M967.0015,86.2969 L954.0015,101.2969 M967.0015,86.2969 L980.0015,101.2969" fill="none" style="stroke:#181818;stroke-width:0.5;"/><text fill="#000000" font-family="sans-serif" font-size="14" lengthAdjust="spacing" textLength="72.0029" x="931" y="115.792">Developer</text></g><!--link Developer to UC1--><g class="link" data-entity-1="Developer" data-entity-2="UC1" data-source-line="20" data-uid="lnk16" id="link_Developer_UC1"><path d="M930.6,81.8769 C788.89,82.6669 274.8,90.2469 129,157.7969 C106.26,168.3369 90.5129,186.0366 79.7429,200.5666" fill="none" id="Developer-to-UC1" style="stroke:#181818;stroke-width:1;"/><polygon fill="#181818" points="76.17,205.3869,84.7428,200.5385,79.1474,201.37,78.3158,195.7746,76.17,205.3869" style="stroke:#181818;stroke-width:1;"/></g><!--link Developer to UC2--><g class="link" data-entity-1="Developer" data-entity-2="UC2" data-source-line="21" data-uid="lnk17" id="link_Developer_UC2"><path d="M1003.46,82.6369 C1141.07,86.2369 1623.02,102.7169 1660,157.7969 C1680.07,187.6869 1679.96,208.8369 1660,238.7969 C1617.67,302.3169 1527.3505,320.6395 1478.5305,326.2695" fill="none" id="Developer-to-UC2" style="stroke:#181818;stroke-width:1;"/><polygon fill="#181818" points="1472.57,326.9569,1481.969,329.8995,1477.5371,326.3841,1481.0525,321.9521,1472.57,326.9569" style="stroke:#181818;stroke-width:1;"/></g><!--link Developer to UC3--><g class="link" data-entity-1="Developer" data-entity-2="UC3" data-source-line="22" data-uid="lnk18" id="link_Developer_UC3"><path d="M1003.04,83.2069 C1134.69,88.7269 1584.19,110.8869 1626,157.7969 C1649.95,184.6669 1649.24,211.2969 1626,238.7969 C1567.52,307.9969 930.4091,324.7106 727.7691,328.3006" fill="none" id="Developer-to-UC3" style="stroke:#181818;stroke-width:1;"/><polygon fill="#181818" points="721.77,328.4069,730.8394,332.2468,726.7692,328.3183,730.6977,324.2481,721.77,328.4069" style="stroke:#181818;stroke-width:1;"/></g><!--link Developer to UC4--><g class="link" data-entity-1="Developer" data-entity-2="UC4" data-source-line="23" data-uid="lnk19" id="link_Developer_UC4"><path d="M930.94,83.0569 C806.64,87.8269 397.04,107.1069 277,157.7969 C251.54,168.5469 232.0599,186.6075 218.6499,201.0675" fill="none" id="Developer-to-UC4" style="stroke:#181818;stroke-width:1;"/><polygon fill="#181818" points="214.57,205.4669,223.6228,201.5878,217.9699,201.8007,217.757,196.1479,214.57,205.4669" style="stroke:#181818;stroke-width:1;"/></g><!--link Developer to UC5--><g class="link" data-entity-1="Developer" data-entity-2="UC5" data-source-line="24" data-uid="lnk20" id="link_Developer_UC5"><path d="M930.86,86.7569 C848.44,98.0669 640.23,126.5469 466,149.7969 C438.9,153.4169 429.67,146.0069 405,157.7969 C382.01,168.7869 365.6352,186.4576 354.3452,200.8376" fill="none" id="Developer-to-UC5" style="stroke:#181818;stroke-width:1;"/><polygon fill="#181818" points="350.64,205.5569,359.344,200.9481,353.7277,201.6241,353.0516,196.0078,350.64,205.5569" style="stroke:#181818;stroke-width:1;"/></g><!--link Developer to UC6--><g class="link" data-entity-1="Developer" data-entity-2="UC6" data-source-line="25" data-uid="lnk21" id="link_Developer_UC6"><path d="M931,91.0669 C872.9,105.6869 754.7,134.0569 653,149.7969 C615.5,155.5969 603.42,144.1869 568,157.7969 C540.67,168.2969 518.8389,186.4423 503.6889,200.9823" fill="none" id="Developer-to-UC6" style="stroke:#181818;stroke-width:1;"/><polygon fill="#181818" points="499.36,205.1369,508.6231,201.7909,502.9674,201.6747,503.0836,196.0191,499.36,205.1369" style="stroke:#181818;stroke-width:1;"/></g><!--link Developer to UC7--><g class="link" data-entity-1="Developer" data-entity-2="UC7" data-source-line="26" data-uid="lnk22" id="link_Developer_UC7"><path d="M930.7,91.9969 C887.64,104.7369 814.21,128.4669 755,157.7969 C728.85,170.7469 705.946,185.9705 687.426,199.2505" fill="none" id="Developer-to-UC7" style="stroke:#181818;stroke-width:1;"/><polygon fill="#181818" points="682.55,202.7469,692.1949,200.753,686.6133,199.8332,687.5331,194.2516,682.55,202.7469" style="stroke:#181818;stroke-width:1;"/></g><!--link Developer to UC8--><g class="link" data-entity-1="Developer" data-entity-2="UC8" data-source-line="27" data-uid="lnk23" id="link_Developer_UC8"><path d="M936.69,118.8669 C914.92,145.4969 890.3364,175.5606 873.4064,196.2806" fill="none" id="Developer-to-UC8" style="stroke:#181818;stroke-width:1;"/><polygon fill="#181818" points="869.61,200.9269,878.4021,196.4884,872.7736,197.055,872.2071,191.4266,869.61,200.9269" style="stroke:#181818;stroke-width:1;"/></g><!--link Developer to UC9--><g class="link" data-entity-1="Developer" data-entity-2="UC9" data-source-line="28" data-uid="lnk24" id="link_Developer_UC9"><path d="M985.4,118.8669 C999.48,147.2369 1015.4528,179.4123 1025.3928,199.4423" fill="none" id="Developer-to-UC9" style="stroke:#181818;stroke-width:1;"/><polygon fill="#181818" points="1028.06,204.8169,1027.6423,194.9769,1025.8374,200.3381,1020.4762,198.5331,1028.06,204.8169" style="stroke:#181818;stroke-width:1;"/></g><!--link Developer to UC10--><g class="link" data-entity-1="Developer" data-entity-2="UC10" data-source-line="29" data-uid="lnk25" id="link_Developer_UC10"><path d="M1003.19,98.3169 C1033.73,112.7369 1078.22,134.8969 1115,157.7969 C1138.65,172.5269 1159.4482,188.3745 1175.6182,201.3345" fill="none" id="Developer-to-UC10" style="stroke:#181818;stroke-width:1;"/><polygon fill="#181818" points="1180.3,205.0869,1175.7789,196.3371,1176.3985,201.9599,1170.7757,202.5795,1180.3,205.0869" style="stroke:#181818;stroke-width:1;"/></g><!--link Developer to UC11--><g class="link" data-entity-1="Developer" data-entity-2="UC11" data-source-line="30" data-uid="lnk26" id="link_Developer_UC11"><path d="M1003.39,85.3969 C1063.51,92.4569 1186.12,111.6769 1279,157.7969 C1303.65,170.0369 1323.2543,187.3873 1337.2143,201.3273" fill="none" id="Developer-to-UC11" style="stroke:#181818;stroke-width:1;"/><polygon fill="#181818" points="1341.46,205.5669,1337.9179,196.377,1337.9219,202.0339,1332.2651,202.0379,1341.46,205.5669" style="stroke:#181818;stroke-width:1;"/></g><!--link Developer to UC12--><g class="link" data-entity-1="Developer" data-entity-2="UC12" data-source-line="31" data-uid="lnk27" id="link_Developer_UC12"><path d="M1003.07,82.9369 C1082.66,86.4669 1278.27,100.7369 1430,157.7969 C1458.32,168.4469 1482.503,184.1931 1501.533,198.2431" fill="none" id="Developer-to-UC12" style="stroke:#181818;stroke-width:1;"/><polygon fill="#181818" points="1506.36,201.8069,1501.4954,193.2432,1502.3375,198.8371,1496.7437,199.6792,1506.36,201.8069" style="stroke:#181818;stroke-width:1;"/></g><!--link UC6 to UC3--><g class="link" data-entity-1="UC6" data-entity-2="UC3" data-source-line="34" data-uid="lnk28" id="link_UC6_UC3"><path d="M507.08,234.0469 C528.07,247.2269 561.21,267.9869 590,285.7969 C606.84,296.2169 620.8698,304.8191 635.0298,313.4691" fill="none" id="UC6-to-UC3" style="stroke:#181818;stroke-width:1;"/><polygon fill="#181818" points="640.15,316.5969,634.5549,308.4917,635.8831,313.9904,630.3844,315.3186,640.15,316.5969" style="stroke:#181818;stroke-width:1;"/><text fill="#000000" font-family="sans-serif" font-size="13" lengthAdjust="spacing" textLength="61.1851" x="591" y="281.8638">&#171;extend&#187;</text></g><!--link UC7 to UC3--><g class="link" data-entity-1="UC7" data-entity-2="UC3" data-source-line="35" data-uid="lnk29" id="link_UC7_UC3"><path d="M661,237.7469 C661,259.2069 661,289.7469 661,309.5569" fill="none" id="UC7-to-UC3" style="stroke:#181818;stroke-width:1;"/><polygon fill="#181818" points="661,315.5569,665,306.5569,661,310.5569,657,306.5569,661,315.5569" style="stroke:#181818;stroke-width:1;"/><text fill="#000000" font-family="sans-serif" font-size="13" lengthAdjust="spacing" textLength="61.1851" x="662" y="281.8638">&#171;extend&#187;</text></g><!--link UC9 to UC2--><g class="link" data-entity-1="UC9" data-entity-2="UC2" data-source-line="36" data-uid="lnk30" id="link_UC9_UC2"><path d="M1074.86,231.3969 C1158.18,253.5569 1342.9114,302.6852 1411.7814,320.9952" fill="none" id="UC9-to-UC2" style="stroke:#181818;stroke-width:1;"/><polygon fill="#181818" points="1417.58,322.5369,1409.9099,316.3587,1412.7479,321.2522,1407.8544,324.0901,1417.58,322.5369" style="stroke:#181818;stroke-width:1;"/><text fill="#000000" font-family="sans-serif" font-size="13" lengthAdjust="spacing" textLength="63.0068" x="1276" y="281.8638">&#171;include&#187;</text></g><!--SRC=[TPA_Ri8m48TtFyKfIoSa27zJeKW8MdNeK1MbdTta22UCZMnJG5N7laMVha_I04bmSBju-BxVdUvEjcG5mdn5GZnitw05YK6OykAP4SyrNpF6KwiqpF0TXTgWPanZQhdCYxgWBfmVZCLr01yCO6imFNO8dZ6d0ki0k85asd7Teyf9bY9qnGlX3fwqMf30qdTTVvUHlV8zrq-oxBnFAVkDOfafRR0H6BY1UoM4sbssBJD3DvF8nT-faPjwrMGH9jfIMWyQUOkMtbGdQZTkHAlh3ft64UV8TRgyp56t2TadOpM6LYi-tV-QX1xfUgJdaRv71XuPUcJaaSYViEqZV-fYEtO3FzzVC5Nw-1b1e-2Mb3HBse0vIClth9YgsWbkOJp6lKMPnN4XXl-9gBhBIP1CnJR3EFu5]--></g></svg>